# xmcd
#
# Track frame offsets:
#	150
#	11850
#	24520
#	37152
#	49742
#	63017
#	76070
#	90442
#	103110
#	116457
#	130105
#	142652
#	155542
#	167625
#	180237
#	193252
#	207022
#	219522
#	231987
#	246255
#	259170
#	272372
#	285872
#	299227
#
# Disc length: 4148 seconds
#
# Revision: 0
# Processed by: cddbd v1.5.2PL0 Copyright (c) Steve Scherf et al.
# Submitted via: EasyCDDAExtractor 2010.3.0.0
#
DISCID=4c103218
DTITLE=Autry Gene - That Silver Haired Daddy Of Mine Disc 6
DYEAR=1900
DGENRE=
TTITLE0=Rheumatism Blues
TTITLE1=I'm Atlanta Bound
TTITLE2=High Steppin' Mama Blues
TTITLE3=That Silver Haired Daddy Of Mine
TTITLE4=Missouri I'm Calling
TTITLE5=Missouri I'm Calling (Alt)
TTITLE6=My Alabama Home (Alt.#2)
TTITLE7=Mississippi Valley
TTITLE8=My Old Pal Of Yesterday
TTITLE9=Missouri I'm Calling (Alt.#2)
TTITLE10=Cross Eyed Gal That Lived Upon The Hill
TTITLE11=I'm Always Dreaming Of You
TTITLE12=Why Don't You Come Back To Me
TTITLE13=Jailhouse Blues (Alt.)
TTITLE14=Rheumatism Blues (Alt.)
TTITLE15=I'm Atlanta Bound (Alt.)
TTITLE16=Wildcat Mama
TTITLE17=Mississippi Valley Blues (Alt.)
TTITLE18=My Old Pal Of Yesterday
TTITLE19=My Cross Eyed Girl
TTITLE20=Birmingham Daddy
TTITLE21=Why Don't You Come Back To Me (Alt.#2)
TTITLE22=Why Don't You Come Back To Me (Alt.#3)
TTITLE23=She's A Low Down Mama (Alt.#3)
EXTD=
EXTT0=
EXTT1=
EXTT2=
EXTT3=
EXTT4=
EXTT5=
EXTT6=
EXTT7=
EXTT8=
EXTT9=
EXTT10=
EXTT11=
EXTT12=
EXTT13=
EXTT14=
EXTT15=
EXTT16=
EXTT17=
EXTT18=
EXTT19=
EXTT20=
EXTT21=
EXTT22=
EXTT23=
PLAYORDER=
